<svg width="81" height="80" viewBox="0 0 81 80" fill="none" xmlns="http://www.w3.org/2000/svg">
<path fill-rule="evenodd" clip-rule="evenodd" d="M31.0001 11.458C18.246 15.4873 9 27.414 9 41.5002C9 58.8972 23.103 73.0002 40.5 73.0002C57.897 73.0002 72 58.8972 72 41.5002C72 28.1539 63.6998 16.7462 51.9798 12.1575C51.9368 12.8528 51.8262 13.5298 51.6544 14.1819C62.4168 18.5809 70 29.155 70 41.5002C70 57.7926 56.7924 71.0002 40.5 71.0002C24.2076 71.0002 11 57.7926 11 41.5002C11 28.461 19.4598 17.3976 31.1901 13.4994C31.0653 12.8522 31 12.1838 31 11.5002C31 11.4861 31 11.4721 31.0001 11.458Z" fill="#333333"/>
<circle cx="40.5" cy="41.5" r="19.5" fill="#4FBF9F"/>
<path d="M50.272 51V46.05H40.768V45.951C44.332 44.004 49.909 41.364 49.909 36.414C49.909 32.619 47.302 30.276 41.164 30.276C38.359 30.276 35.125 30.969 33.211 31.926L33.574 36.612C35.686 35.754 37.963 35.094 39.712 35.094C42.946 35.094 44.101 36.348 44.101 37.503C44.101 40.671 34.96 44.895 33.211 46.017V51H50.272Z" fill="white"/>
<path d="M35 5.03758C31.16 4.70538 23.384 6.43279 23 16C25.4 16 33.08 16 35 5.03758Z" fill="#FFD400" stroke="#333333" stroke-width="2"/>
<path d="M46 5.03758C49.84 4.70538 57.616 6.43279 58 16C55.6 16 47.92 16 46 5.03758Z" fill="#FFD400" stroke="#333333" stroke-width="2"/>
<path d="M2.5851 31.0045C1.76037 34.7696 2.47035 42.7034 11.9081 44.3183C12.2177 41.9383 13.2083 34.3225 2.5851 31.0045Z" fill="#FFD400" stroke="#333333" stroke-width="2"/>
<path d="M78.4149 31.0045C79.2396 34.7696 78.5296 42.7034 69.0919 44.3183C68.7823 41.9383 67.7917 34.3225 78.4149 31.0045Z" fill="#FFD400" stroke="#333333" stroke-width="2"/>
<path d="M12.0288 64.1204C14.2705 67.2558 20.6349 72.0459 28.1584 66.1234C26.5994 64.2987 21.6108 58.4595 12.0288 64.1204Z" fill="#FFD400" stroke="#333333" stroke-width="2"/>
<path d="M68.9712 64.1204C66.7295 67.2558 60.3651 72.0459 52.8416 66.1234C54.4006 64.2987 59.3892 58.4595 68.9712 64.1204Z" fill="#FFD400" stroke="#333333" stroke-width="2"/>
<path d="M14.9269 16.0278C11.8555 18.3566 7.24571 24.8527 13.3768 32.2072C15.1571 30.5977 20.8542 25.4474 14.9269 16.0278Z" fill="#FFEC6C" stroke="#333333" stroke-width="2"/>
<path d="M66.0731 16.0278C69.1445 18.3566 73.7543 24.8527 67.6232 32.2072C65.8429 30.5977 60.1458 25.4474 66.0731 16.0278Z" fill="#FFEC6C" stroke="#333333" stroke-width="2"/>
<path d="M2.03502 48.9859C3.12181 52.6839 7.55838 59.2995 16.6104 56.1786C15.7377 53.9428 12.9452 46.7885 2.03502 48.9859Z" fill="#FFEC6C" stroke="#333333" stroke-width="2"/>
<path d="M78.965 48.9859C77.8782 52.6839 73.4416 59.2995 64.3896 56.1786C65.2623 53.9428 68.0548 46.7885 78.965 48.9859Z" fill="#FFEC6C" stroke="#333333" stroke-width="2"/>
<circle cx="72" cy="8" r="6" fill="#4FBF9F"/>
<circle cx="9" cy="71" r="4" fill="#4FBF9F"/>
<circle cx="18.5" cy="72.5" r="1.5" fill="black"/>
<circle cx="64.5" cy="72.5" r="1.5" fill="black"/>
<circle cx="75.5" cy="62.5" r="1.5" fill="black"/>
<circle cx="75.5" cy="21.5" r="1.5" fill="black"/>
<circle cx="60.5" cy="4.5" r="1.5" fill="black"/>
<circle cx="20.5" cy="3.5" r="1.5" fill="black"/>
<circle cx="6.5" cy="15.5" r="1.5" fill="black"/>
</svg>
