<svg width="80" height="80" viewBox="0 0 80 80" fill="none" xmlns="http://www.w3.org/2000/svg">
<circle cx="38" cy="30" r="30" fill="#E56235"/>
<path d="M19 21H31V28C31 31.3137 28.3137 34 25 34C21.6863 34 19 31.3137 19 28V21Z" stroke="white" stroke-width="2"/>
<path d="M46 21H58V28C58 31.3137 55.3137 34 52 34C48.6863 34 46 31.3137 46 28V21Z" stroke="white" stroke-width="2"/>
<path d="M26 16H51V32C51 38.0751 46.0751 43 40 43H37C30.9249 43 26 38.0751 26 32V16Z" fill="#FDBF5E" stroke="white" stroke-width="2"/>
<path d="M30 20H47V30.3191C47 35.1135 43.1135 39 38.3191 39C33.7246 39 30 35.2754 30 30.6809V20Z" fill="white"/>
<path d="M34.2466 51L35.8022 44H40.1978L41.7534 51H34.2466Z" fill="#D9D9D9" stroke="white" stroke-width="2"/>
<mask id="path-7-inside-1_1437_316" fill="white">
<rect x="30" y="50" width="17" height="6" rx="1"/>
</mask>
<rect x="30" y="50" width="17" height="6" rx="1" fill="#D9D9D9" stroke="white" stroke-width="4" mask="url(#path-7-inside-1_1437_316)"/>
<mask id="path-8-inside-2_1437_316" fill="white">
<rect x="25" y="54" width="27" height="10" rx="1"/>
</mask>
<rect x="25" y="54" width="27" height="10" rx="1" fill="#D9D9D9" stroke="white" stroke-width="4" mask="url(#path-8-inside-2_1437_316)"/>
<mask id="path-9-inside-3_1437_316" fill="white">
<path fill-rule="evenodd" clip-rule="evenodd" d="M16 62C11.0294 62 7 66.0294 7 71C7 75.9706 11.0294 80 16 80H70C71.1046 80 72 79.1046 72 78V76.9825C71.835 76.9941 71.6682 77 71.5 77C67.9101 77 65 74.3137 65 71C65 67.6863 67.9101 65 71.5 65C71.6682 65 71.835 65.0059 72 65.0175V64C72 62.8954 71.1046 62 70 62H16Z"/>
</mask>
<path fill-rule="evenodd" clip-rule="evenodd" d="M16 62C11.0294 62 7 66.0294 7 71C7 75.9706 11.0294 80 16 80H70C71.1046 80 72 79.1046 72 78V76.9825C71.835 76.9941 71.6682 77 71.5 77C67.9101 77 65 74.3137 65 71C65 67.6863 67.9101 65 71.5 65C71.6682 65 71.835 65.0059 72 65.0175V64C72 62.8954 71.1046 62 70 62H16Z" fill="#4FBF9F"/>
<path d="M72 76.9825H74V74.8371L71.8599 74.9874L72 76.9825ZM72 65.0175L71.8599 67.0126L74 67.1628V65.0175H72ZM9 71C9 67.134 12.134 64 16 64V60C9.92487 60 5 64.9249 5 71H9ZM16 78C12.134 78 9 74.866 9 71H5C5 77.0751 9.92487 82 16 82V78ZM70 78H16V82H70V78ZM70 78V82C72.2091 82 74 80.2091 74 78H70ZM70 76.9825V78H74V76.9825H70ZM71.8599 74.9874C71.7415 74.9957 71.6215 75 71.5 75V79C71.715 79 71.9285 78.9925 72.1401 78.9776L71.8599 74.9874ZM71.5 75C68.861 75 67 73.0614 67 71H63C63 75.566 66.9593 79 71.5 79V75ZM67 71C67 68.9386 68.861 67 71.5 67V63C66.9593 63 63 66.434 63 71H67ZM71.5 67C71.6215 67 71.7415 67.0043 71.8599 67.0126L72.1401 63.0224C71.9285 63.0075 71.715 63 71.5 63V67ZM70 64V65.0175H74V64H70ZM70 64H74C74 61.7909 72.2091 60 70 60V64ZM16 64H70V60H16V64Z" fill="#7E7B8F" mask="url(#path-9-inside-3_1437_316)"/>
<path fill-rule="evenodd" clip-rule="evenodd" d="M60.7886 76.0004C59.7322 74.9256 59.0359 73.0873 59.0359 71C59.0359 68.913 59.732 67.0749 60.7881 66H17.0002C14.2387 66 12 68.2387 12 71.0002C12 73.7618 14.2387 76.0004 17.0002 76.0004H60.7886Z" fill="white"/>
<path d="M38.5 24L39.9865 26.454L42.7798 27.1094L40.9052 29.2815L41.145 32.1406L38.5 31.029L35.855 32.1406L36.0948 29.2815L34.2202 27.1094L37.0135 26.454L38.5 24Z" fill="#FDBF5E"/>
</svg>
