<svg width="172" height="727" viewBox="0 0 172 727" fill="none" xmlns="http://www.w3.org/2000/svg">
<path fill-rule="evenodd" clip-rule="evenodd" d="M86 163C76.6112 163 69 155.389 69 146H71C71 154.284 77.7157 161 86 161C86.0347 161 86.0693 161 86.1039 161V163C86.0693 163 86.0347 163 86 163ZM103 146C103 136.611 95.3888 129 86 129C85.6994 129 85.4006 129.008 85.1039 129.023V131.026C85.4004 131.009 85.6991 131 86 131C94.2843 131 101 137.716 101 146H103Z" fill="#AFC524"/>
<circle cx="86" cy="67" r="6" fill="#DF1F1A"/>
<line x1="86" y1="51" x2="86" y2="7" stroke="#DF1F1A" stroke-width="2" stroke-linecap="round"/>
<line x1="8" y1="67" x2="70" y2="67" stroke="#DF1F1A" stroke-width="2" stroke-linecap="round"/>
<path fill-rule="evenodd" clip-rule="evenodd" d="M71.1039 67H69.1039C69.1039 57.6112 76.715 50 86.1039 50C86.4045 50 86.7032 50.0078 87 50.0232V52.0263C86.7035 52.0089 86.4047 52 86.1039 52C77.8196 52 71.1039 58.7157 71.1039 67Z" fill="#DF1F1A"/>
<circle cx="4" cy="67" r="4" fill="#DF1F1A"/>
<circle cx="86" cy="4" r="4" fill="#DF1F1A"/>
<circle r="6" transform="matrix(-1 0 0 1 86.1035 146)" fill="#F47B1E"/>
<line x1="86" y1="130" x2="86" y2="83" stroke="#F47B1E" stroke-width="2" stroke-linecap="round"/>
<line x1="1" y1="-1" x2="63" y2="-1" transform="matrix(-1 0 0 1 165.104 147)" stroke="#F47B1E" stroke-width="2" stroke-linecap="round"/>
<path fill-rule="evenodd" clip-rule="evenodd" d="M69.9503 67C69.9503 66.9872 69.9502 66.9744 69.9502 66.9615C69.9502 58.6773 76.666 51.9615 84.9502 51.9615C85.6453 51.9615 86.3294 52.0088 86.9994 52.1003V50.0838C86.3276 50.0031 85.6438 49.9615 84.9502 49.9615C75.5614 49.9615 67.9502 57.5727 67.9502 66.9615C67.9502 69.0333 68.3208 71.0185 68.9994 72.8545V67H69.9503ZM85.9994 81.9254C93.7816 81.3877 99.9303 74.9141 99.9502 67H101.95C101.93 76.019 94.887 83.3886 85.9994 83.9297V81.9254Z" fill="#F47B1E"/>
<path fill-rule="evenodd" clip-rule="evenodd" d="M86 163C85.6643 163 85.3309 162.99 85 162.971V160.967C85.3305 160.989 85.664 161 86 161C86.0347 161 86.0693 161 86.1039 161V163C86.0693 163 86.0347 163 86 163ZM103 146C103 136.611 95.3888 129 86 129C85.6643 129 85.3309 129.01 85 129.029V131.033C85.3305 131.011 85.664 131 86 131C94.2843 131 101 137.716 101 146H103Z" fill="#F47B1E"/>
<circle cx="168" cy="146" r="4" fill="#F47B1E"/>
<circle cx="86" cy="222" r="6" fill="#AFC524"/>
<circle r="6" transform="matrix(-1 0 0 1 86.1035 301)" fill="#52BDF3"/>
<line x1="86" y1="206" x2="86" y2="162" stroke="#AFC524" stroke-width="2" stroke-linecap="round"/>
<line x1="86" y1="285" x2="86" y2="238" stroke="#52BDF3" stroke-width="2" stroke-linecap="round"/>
<line x1="8" y1="222" x2="70" y2="222" stroke="#AFC524" stroke-width="2" stroke-linecap="round"/>
<line x1="1" y1="-1" x2="63" y2="-1" transform="matrix(-1 0 0 1 165.104 302)" stroke="#52BDF3" stroke-width="2" stroke-linecap="round"/>
<path fill-rule="evenodd" clip-rule="evenodd" d="M86.1035 239C95.4924 239 103.104 231.389 103.104 222H101.104C101.104 230.284 94.3878 237 86.1035 237C86.0689 237 86.0342 237 85.9996 237V239C86.0342 239 86.0689 239 86.1035 239ZM69.1035 222C69.1035 212.611 76.7147 205 86.1035 205C86.4041 205 86.7029 205.008 86.9996 205.023V207.026C86.7032 207.009 86.4044 207 86.1035 207C77.8192 207 71.1035 213.716 71.1035 222H69.1035Z" fill="#52BDF3"/>
<path fill-rule="evenodd" clip-rule="evenodd" d="M71.1039 222H69.1039C69.1039 212.611 76.715 205 86.1039 205C86.4045 205 86.7032 205.008 87 205.023V207.026C86.7035 207.009 86.4047 207 86.1039 207C77.8196 207 71.1039 213.716 71.1039 222Z" fill="#AFC524"/>
<path fill-rule="evenodd" clip-rule="evenodd" d="M86 318C76.6112 318 69 310.389 69 301H71C71 309.284 77.7157 316 86 316C86.0347 316 86.0693 316 86.1039 316V318C86.0693 318 86.0347 318 86 318ZM103 301C103 291.611 95.3888 284 86 284C85.6994 284 85.4006 284.008 85.1039 284.023V286.026C85.4004 286.009 85.6991 286 86 286C94.2843 286 101 292.716 101 301H103Z" fill="#53519C"/>
<path fill-rule="evenodd" clip-rule="evenodd" d="M101 301H103V301.065C103 301.043 103 301.022 103 301C103 291.611 95.3885 284 85.9996 284C85.699 284 85.4003 284.008 85.1035 284.023V286.026C85.4 286.009 85.6988 286 85.9996 286C94.2839 286 101 292.716 101 301Z" fill="#52BDF3"/>
<circle cx="4" cy="222" r="4" fill="#AFC524"/>
<circle cx="168" cy="301" r="4" fill="#52BDF3"/>
<circle cx="86" cy="377" r="6" fill="#53519C"/>
<circle r="6" transform="matrix(-1 0 0 1 86.1035 456)" fill="#774688"/>
<line x1="86" y1="361" x2="86" y2="317" stroke="#53519C" stroke-width="2" stroke-linecap="round"/>
<line x1="86" y1="440" x2="86" y2="393" stroke="#774688" stroke-width="2" stroke-linecap="round"/>
<line x1="8" y1="377" x2="70" y2="377" stroke="#53519C" stroke-width="2" stroke-linecap="round"/>
<line x1="1" y1="-1" x2="63" y2="-1" transform="matrix(-1 0 0 1 165.104 457)" stroke="#774688" stroke-width="2" stroke-linecap="round"/>
<path fill-rule="evenodd" clip-rule="evenodd" d="M86.1035 394C95.4924 394 103.104 386.389 103.104 377H101.104C101.104 385.284 94.3878 392 86.1035 392C86.0689 392 86.0342 392 85.9996 392V394C86.0342 394 86.0689 394 86.1035 394ZM69.1035 377C69.1035 367.611 76.7147 360 86.1035 360C86.4041 360 86.7029 360.008 86.9996 360.023V362.026C86.7032 362.009 86.4044 362 86.1035 362C77.8192 362 71.1035 368.716 71.1035 377H69.1035Z" fill="#774688"/>
<path fill-rule="evenodd" clip-rule="evenodd" d="M103 378.89C103.068 378.269 103.104 377.639 103.104 377H103V378.89ZM69.1035 377C69.1035 367.611 76.7147 360 86.1035 360C86.4041 360 86.7029 360.008 86.9996 360.023V362.026C86.7032 362.009 86.4044 362 86.1035 362C77.8192 362 71.1035 368.716 71.1035 377H69.1035Z" fill="#53519C"/>
<path fill-rule="evenodd" clip-rule="evenodd" d="M86 473C76.6112 473 69 465.389 69 456H71C71 464.284 77.7157 471 86 471C86.0347 471 86.0693 471 86.1039 471V473C86.0693 473 86.0347 473 86 473ZM103 456C103 446.611 95.3888 439 86 439C85.6994 439 85.4006 439.008 85.1039 439.023V441.026C85.4004 441.009 85.6991 441 86 441C94.2843 441 101 447.716 101 456H103Z" fill="#E03C85"/>
<path fill-rule="evenodd" clip-rule="evenodd" d="M101 456H103V456.065C103 456.043 103 456.022 103 456C103 446.611 95.3885 439 85.9996 439C85.699 439 85.4003 439.008 85.1035 439.023V441.026C85.4 441.009 85.6988 441 85.9996 441C94.2839 441 101 447.716 101 456Z" fill="#774688"/>
<circle cx="4" cy="377" r="4" fill="#53519C"/>
<circle cx="168" cy="456" r="4" fill="#774688"/>
<circle cx="86" cy="532" r="6" fill="#E03C85"/>
<circle r="6" transform="matrix(-1 0 0 1 86.1035 611)" fill="#E0DA59"/>
<line x1="86" y1="516" x2="86" y2="472" stroke="#E03C85" stroke-width="2" stroke-linecap="round"/>
<line x1="86" y1="595" x2="86" y2="548" stroke="#E0DA59" stroke-width="2" stroke-linecap="round"/>
<line x1="86" y1="697" x2="86" y2="627" stroke="#E56235" stroke-width="2" stroke-linecap="round"/>
<line x1="8" y1="532" x2="70" y2="532" stroke="#E03C85" stroke-width="2" stroke-linecap="round"/>
<line x1="1" y1="-1" x2="63" y2="-1" transform="matrix(-1 0 0 1 165.104 612)" stroke="#E0DA59" stroke-width="2" stroke-linecap="round"/>
<path fill-rule="evenodd" clip-rule="evenodd" d="M86.1035 549C95.4924 549 103.104 541.389 103.104 532H101.104C101.104 540.284 94.3878 547 86.1035 547C86.0689 547 86.0342 547 85.9996 547V549C86.0342 549 86.0689 549 86.1035 549ZM69.1035 532C69.1035 522.611 76.7147 515 86.1035 515C86.4041 515 86.7029 515.008 86.9996 515.023V517.026C86.7032 517.009 86.4044 517 86.1035 517C77.8192 517 71.1035 523.716 71.1035 532H69.1035Z" fill="#E0DA59"/>
<path fill-rule="evenodd" clip-rule="evenodd" d="M103 533.891C103.068 533.27 103.104 532.639 103.104 532H103V533.891ZM69.1035 532C69.1035 522.611 76.7147 515 86.1035 515C86.4041 515 86.7029 515.008 86.9996 515.023V517.026C86.7032 517.009 86.4044 517 86.1035 517C77.8192 517 71.1035 523.716 71.1035 532H69.1035Z" fill="#E03C85"/>
<path fill-rule="evenodd" clip-rule="evenodd" d="M86 628C76.6112 628 69 620.389 69 611H71C71 619.284 77.7157 626 86 626C86.0347 626 86.0693 626 86.1039 626V628C86.0693 628 86.0347 628 86 628ZM103 611C103 601.611 95.3888 594 86 594C85.6994 594 85.4006 594.008 85.1039 594.023V596.026C85.4004 596.009 85.6991 596 86 596C94.2843 596 101 602.716 101 611H103Z" fill="#E56235"/>
<path fill-rule="evenodd" clip-rule="evenodd" d="M85.9996 594C95.3885 594 103 601.611 103 611H101C101 602.716 94.2839 596 85.9996 596C85.6988 596 85.4 596.009 85.1035 596.026V594.023C85.4003 594.008 85.699 594 85.9996 594Z" fill="#E0DA59"/>
<circle cx="4" cy="532" r="4" fill="#E03C85"/>
<circle cx="168" cy="611" r="4" fill="#E0DA59"/>
<circle cx="86" cy="712" r="14.5" stroke="#E56235"/>
<circle cx="86" cy="712" r="10" fill="#E56235"/>
</svg>
