<?xml version="1.0" encoding="UTF-8"?>
<!DOCTYPE svg PUBLIC "-//W3C//DTD SVG 1.1//EN" "http://www.w3.org/Graphics/SVG/1.1/DTD/svg11.dtd">
<!-- Creator: CorelDRAW 2018 (64-Bit) -->
<svg xmlns="http://www.w3.org/2000/svg" xml:space="preserve" width="140.886mm" height="56.7479mm" version="1.1" style="shape-rendering:geometricPrecision; text-rendering:geometricPrecision; image-rendering:optimizeQuality; fill-rule:evenodd; clip-rule:evenodd"
viewBox="0 0 3290.72 1325.48"
 xmlns:xlink="http://www.w3.org/1999/xlink">
 <defs>
  <style type="text/css">
   <![CDATA[
    .fil0 {fill:white}
   ]]>
  </style>
 </defs>
 <g id="Layer_x0020_1">
  <metadata id="CorelCorpID_0Corel-Layer"/>
  <g id="_2962074356480">
   <path class="fil0" d="M3268.09 605.78l-587.83 -583.16c-30.16,-30.16 -79.09,-30.16 -109.25,0 -30.17,30.17 -30.17,79.08 0,109.25l455.95 451.28 -2949.72 0c-42.66,0 -77.25,34.59 -77.25,77.25 0,42.66 34.59,77.25 77.25,77.25l2949.72 0 -451.27 455.95c-30.17,30.17 -30.17,79.08 0,109.25 15.08,15.07 34.86,22.62 54.63,22.62 19.77,0 39.54,-7.55 54.63,-22.62l583.14 -587.83c30.17,-30.17 30.17,-79.08 0,-109.25z"/>
  </g>
 </g>
</svg>
