<svg width="38" height="53" viewBox="0 0 38 53" fill="none" xmlns="http://www.w3.org/2000/svg">
<path d="M18.9149 0C8.48518 0 0 8.48518 0 18.9148C0 31.8583 16.927 50.8602 17.6477 51.6628C18.3246 52.4167 19.5065 52.4154 20.1822 51.6628C20.9029 50.8602 37.8299 31.8583 37.8299 18.9148C37.8297 8.48518 29.3446 0 18.9149 0ZM18.9149 28.4314C13.6675 28.4314 9.39845 24.1623 9.39845 18.9148C9.39845 13.6674 13.6676 9.39835 18.9149 9.39835C24.1623 9.39835 28.4313 13.6675 28.4313 18.9149C28.4313 24.1624 24.1623 28.4314 18.9149 28.4314Z" fill="#E56235"/>
</svg>
