<svg width="25" height="17" viewBox="0 0 25 17" fill="none" xmlns="http://www.w3.org/2000/svg">
<path d="M23.6764 1.63818C23.0056 0.445091 22.2777 0.225636 20.7956 0.142182C19.3151 0.0417273 15.5921 0 12.3667 0C9.13518 0 5.41064 0.0417274 3.93164 0.140636C2.45264 0.225636 1.72318 0.443545 1.04627 1.63818C0.355455 2.82973 0 4.88209 0 8.49536C0 8.49846 0 8.5 0 8.5C0 8.50309 0 8.50464 0 8.50464V8.50773C0 12.1055 0.355455 14.1734 1.04627 15.3525C1.72318 16.5456 2.45109 16.762 3.93009 16.8625C5.41064 16.949 9.13518 17 12.3667 17C15.5921 17 19.3151 16.949 20.7972 16.864C22.2793 16.7635 23.0072 16.5472 23.6779 15.3541C24.3749 14.1749 24.7273 12.1071 24.7273 8.50927C24.7273 8.50927 24.7273 8.50464 24.7273 8.50155C24.7273 8.50155 24.7273 8.49845 24.7273 8.49691C24.7273 4.88209 24.3749 2.82973 23.6764 1.63818ZM9.27273 13.1364V3.86364L17 8.5L9.27273 13.1364Z" fill="#E0E0E0"/>
</svg>
