<svg width="26" height="17" viewBox="0 0 26 17" fill="none" xmlns="http://www.w3.org/2000/svg">
<path d="M24.6992 16.6259H21.5143C19.4831 16.6259 19.0604 15.8609 17.3217 14.0249C15.7292 12.3419 15.4364 13.2599 15.4364 15.7249C15.4364 16.3199 15.1437 16.9318 14.4287 16.9318C12.2512 16.9318 9.7978 17.6969 6.62905 13.8719C3.15155 9.74092 0.258635 2.39679 0.112385 1.63179C-0.180115 0.713792 0.112289 0.407842 0.827289 0.407842H4.15902C5.16652 0.407842 5.1662 1.01979 5.4587 1.63179C6.61245 4.53879 9.65164 11.2708 10.3829 8.05784C10.8054 6.22184 10.8056 1.93785 8.92055 1.47885C7.62055 1.17285 10.3824 -0.6631 13.9899 0.2549C15.2899 0.5609 15.2904 1.32577 15.2904 2.24377C15.2904 5.91577 14.868 8.21076 15.7292 8.82276C16.5905 9.43476 18.6217 4.84494 19.7917 1.78494C20.068 0.866942 20.2139 0.407842 21.0914 0.407842H24.6992C27.153 0.407842 24.6987 4.38593 22.5212 7.29293C20.7824 9.74093 20.929 9.74084 22.814 11.8828C25.2677 14.0248 27.5917 16.6429 24.6992 16.6429V16.6259Z" fill="#E0E0E0"/>
</svg>
