<svg width="81" height="81" viewBox="0 0 81 81" fill="none" xmlns="http://www.w3.org/2000/svg">
<path d="M40.5004 11.9998C32.8878 11.9999 25.7308 14.9644 20.3479 20.3473C14.9649 25.7303 12.0005 32.8873 12.0003 40.4999C12.0005 48.1125 14.9649 55.2695 20.3479 60.6524C25.7308 66.0354 32.8878 68.9998 40.5004 69C48.113 68.9998 55.27 66.0354 60.6529 60.6524C64.3381 56.9673 66.9395 52.3572 68.1762 47.3206C68.4693 46.1264 67.7389 44.9205 66.5447 44.6274C65.3503 44.3341 64.1445 45.0647 63.8515 46.2589C62.809 50.5053 60.614 54.3937 57.5041 57.5036C48.1282 66.8795 32.8726 66.8795 23.4967 57.5036C14.1208 48.1277 14.1208 32.8721 23.4967 23.4962C32.8726 14.1203 48.1282 14.1203 57.5041 23.4962C60.8567 26.8488 63.1231 31.1092 64.0583 35.8168C64.2978 37.0229 65.4698 37.8064 66.6759 37.5669C67.8823 37.3273 68.6656 36.1553 68.426 34.9493C67.3187 29.3744 64.6307 24.3251 60.6529 20.3473C55.27 14.9644 48.113 11.9999 40.5004 11.9998Z" fill="white"/>
<path d="M38.1251 28.8576C36.5568 27.9476 34.6826 27.9444 33.1118 28.8493C31.535 29.7572 30.5938 31.3874 30.5938 33.2099V47.79C30.5938 49.6126 31.535 51.2427 33.1118 52.1506C33.8949 52.6017 34.753 52.827 35.6113 52.827C36.4749 52.827 37.3387 52.5986 38.1251 52.1423L50.6882 44.8523C52.2558 43.9426 53.1917 42.3156 53.1917 40.4999C53.1917 38.6843 52.2558 37.0572 50.6882 36.1475L38.1251 28.8576ZM48.4531 41.0006L35.8901 48.2905C35.6604 48.424 35.4609 48.3646 35.3341 48.2917C35.203 48.2162 35.0469 48.0679 35.0469 47.7899V33.2099C35.0469 32.9319 35.203 32.7836 35.3341 32.7082C35.406 32.6668 35.5012 32.6299 35.612 32.6299C35.6967 32.6299 35.7905 32.6515 35.8901 32.7093L48.4531 39.9993C48.6891 40.1361 48.7386 40.3471 48.7386 40.4999C48.7386 40.6528 48.6891 40.8637 48.4531 41.0006Z" fill="white"/>
</svg>
