<svg width="26" height="26" viewBox="0 0 26 26" fill="none" xmlns="http://www.w3.org/2000/svg">
<path fill-rule="evenodd" clip-rule="evenodd" d="M11.8283 20.6102C16.6713 20.6102 20.5972 16.6842 20.5972 11.8413C20.5972 6.99836 16.6713 3.07239 11.8283 3.07239C6.98542 3.07239 3.05945 6.99836 3.05945 11.8413C3.05945 16.6842 6.98542 20.6102 11.8283 20.6102ZM11.8283 23.3083C18.1614 23.3083 23.2954 18.1743 23.2954 11.8413C23.2954 5.50823 18.1614 0.374268 11.8283 0.374268C5.49529 0.374268 0.361328 5.50823 0.361328 11.8413C0.361328 18.1743 5.49529 23.3083 11.8283 23.3083Z" fill="#828282"/>
<path fill-rule="evenodd" clip-rule="evenodd" d="M18.7397 18.8962C19.2664 18.3695 20.1203 18.3695 20.6471 18.8962L24.8899 23.139C25.4166 23.6657 25.4166 24.5197 24.8899 25.0464C24.3632 25.5731 23.5092 25.5731 22.9825 25.0464L18.7397 20.8036C18.213 20.2769 18.213 19.4229 18.7397 18.8962Z" fill="#828282"/>
</svg>
